HIERARCHY
ROOT Hips
{
    OFFSET   0.000000   0.000000   0.000000
    CHANNELS 6 Xposition Yposition Zposition Zrotation Xrotation Yrotation
    JOINT Chest
    {
        OFFSET   0.000000   8.007230   0.000000
        CHANNELS 3 Zrotation Xrotation Yrotation
        JOINT Chest2
        {
            OFFSET   0.000000  22.077100   0.000000
            CHANNELS 3 Zrotation Xrotation Yrotation
            JOINT Neck
            {
                OFFSET   0.000000  23.255100   0.000000
                CHANNELS 3 Zrotation Xrotation Yrotation
                JOINT Head
                {
                    OFFSET   0.000000  14.370100   1.956600
                    CHANNELS 3 Zrotation Xrotation Yrotation
                    End Site
                    {
                        OFFSET   0.000000  19.566000   0.000000
                    }
                }
            }
            JOINT LeftCollar
            {
                OFFSET   3.911900  19.017000  -0.467063
                CHANNELS 3 Zrotation Xrotation Yrotation
                JOINT LeftShoulder
                {
                    OFFSET  10.383700   0.000000   0.000000
                    CHANNELS 3 Zrotation Xrotation Yrotation
                    JOINT LeftElbow
                    {
                        OFFSET  26.662100   0.001193   0.000980
                        CHANNELS 3 Zrotation Xrotation Yrotation
                        JOINT LeftWrist
                        {
                            OFFSET  28.869000  -0.000059  -0.000082
                            CHANNELS 3 Zrotation Xrotation Yrotation
                            JOINT LeftFinger0
                            {
                                OFFSET   2.044650  -2.323450   3.252850
                                CHANNELS 3 Zrotation Xrotation Yrotation
                                JOINT LeftFinger01
                                {
                                    OFFSET   3.088130   0.000000   0.000000
                                    CHANNELS 3 Zrotation Xrotation Yrotation
                                    JOINT LeftFinger02
                                    {
                                        OFFSET   2.639460   0.000000   0.000000
                                        CHANNELS 3 Zrotation Xrotation Yrotation
                                        End Site
                                        {
                                            OFFSET   2.582190   0.000000   0.000000
                                        }
                                    }
                                }
                            }
                            JOINT LeftFinger1
                            {
                                OFFSET   8.364480   0.000000   3.252850
                                CHANNELS 3 Zrotation Xrotation Yrotation
                                JOINT LeftFinger11
                                {
                                    OFFSET   4.646930   0.000000   0.000000
                                    CHANNELS 3 Zrotation Xrotation Yrotation
                                    JOINT LeftFinger12
                                    {
                                        OFFSET   2.323470   0.000000   0.000000
                                        CHANNELS 3 Zrotation Xrotation Yrotation
                                        End Site
                                        {
                                            OFFSET   2.273050   0.000000   0.000000
                                        }
                                    }
                                }
                            }
                            JOINT LeftFinger2
                            {
                                OFFSET   8.364490   0.000016   1.078090
                                CHANNELS 3 Zrotation Xrotation Yrotation
                                JOINT LeftFinger21
                                {
                                    OFFSET   5.111610   0.000000   0.000000
                                    CHANNELS 3 Zrotation Xrotation Yrotation
                                    JOINT LeftFinger22
                                    {
                                        OFFSET   2.788150   0.000016   0.000000
                                        CHANNELS 3 Zrotation Xrotation Yrotation
                                        End Site
                                        {
                                            OFFSET   2.727660   0.000000   0.000000
                                        }
                                    }
                                }
                            }
                            JOINT LeftFinger3
                            {
                                OFFSET   7.899780   0.000015  -1.078090
                                CHANNELS 3 Zrotation Xrotation Yrotation
                                JOINT LeftFinger31
                                {
                                    OFFSET   4.646930   0.000000   0.000000
                                    CHANNELS 3 Zrotation Xrotation Yrotation
                                    JOINT LeftFinger32
                                    {
                                        OFFSET   2.323470   0.000000   0.000000
                                        CHANNELS 3 Zrotation Xrotation Yrotation
                                        End Site
                                        {
                                            OFFSET   2.273050   0.000000   0.000000
                                        }
                                    }
                                }
                            }
                            JOINT LeftFinger4
                            {
                                OFFSET   7.435090   0.000000  -3.252850
                                CHANNELS 3 Zrotation Xrotation Yrotation
                                JOINT LeftFinger41
                                {
                                    OFFSET   3.717550   0.000000   0.000000
                                    CHANNELS 3 Zrotation Xrotation Yrotation
                                    JOINT LeftFinger42
                                    {
                                        OFFSET   1.858770   0.000000   0.000000
                                        CHANNELS 3 Zrotation Xrotation Yrotation
                                        End Site
                                        {
                                            OFFSET   1.818440   0.000000   0.000000
                                        }
                                    }
                                }
                            }
                        }
                    }
                }
            }
            JOINT RightCollar
            {
                OFFSET  -3.911910  19.017000  -0.467062
                CHANNELS 3 Zrotation Xrotation Yrotation
                JOINT RightShoulder
                {
                    OFFSET -10.383700   0.000014   0.000000
                    CHANNELS 3 Zrotation Xrotation Yrotation
                    JOINT RightElbow
                    {
                        OFFSET -26.662100   0.001225   0.001091
                        CHANNELS 3 Zrotation Xrotation Yrotation
                        JOINT RightWrist
                        {
                            OFFSET -28.869000  -0.000020  -0.000085
                            CHANNELS 3 Zrotation Xrotation Yrotation
                            JOINT RightFinger0
                            {
                                OFFSET  -2.044650  -2.323490   3.252850
                                CHANNELS 3 Zrotation Xrotation Yrotation
                                JOINT RightFinger01
                                {
                                    OFFSET  -3.088130   0.000000   0.000000
                                    CHANNELS 3 Zrotation Xrotation Yrotation
                                    JOINT RightFinger02
                                    {
                                        OFFSET  -2.639460   0.000000   0.000000
                                        CHANNELS 3 Zrotation Xrotation Yrotation
                                        End Site
                                        {
                                            OFFSET  -2.582190   0.000000   0.000000
                                        }
                                    }
                                }
                            }
                            JOINT RightFinger1
                            {
                                OFFSET  -8.364480   0.000000   3.252850
                                CHANNELS 3 Zrotation Xrotation Yrotation
                                JOINT RightFinger11
                                {
                                    OFFSET  -4.646930   0.000000   0.000000
                                    CHANNELS 3 Zrotation Xrotation Yrotation
                                    JOINT RightFinger12
                                    {
                                        OFFSET  -2.323470   0.000000   0.000000
                                        CHANNELS 3 Zrotation Xrotation Yrotation
                                        End Site
                                        {
                                            OFFSET  -2.273050   0.000000   0.000000
                                        }
                                    }
                                }
                            }
                            JOINT RightFinger2
                            {
                                OFFSET  -8.364480   0.000000   1.078090
                                CHANNELS 3 Zrotation Xrotation Yrotation
                                JOINT RightFinger21
                                {
                                    OFFSET  -5.111620   0.000000   0.000000
                                    CHANNELS 3 Zrotation Xrotation Yrotation
                                    JOINT RightFinger22
                                    {
                                        OFFSET  -2.788160   0.000000   0.000000
                                        CHANNELS 3 Zrotation Xrotation Yrotation
                                        End Site
                                        {
                                            OFFSET  -2.727660   0.000000   0.000000
                                        }
                                    }
                                }
                            }
                            JOINT RightFinger3
                            {
                                OFFSET  -7.899780   0.000000  -1.078090
                                CHANNELS 3 Zrotation Xrotation Yrotation
                                JOINT RightFinger31
                                {
                                    OFFSET  -4.646930   0.000000   0.000000
                                    CHANNELS 3 Zrotation Xrotation Yrotation
                                    JOINT RightFinger32
                                    {
                                        OFFSET  -2.323470   0.000000   0.000000
                                        CHANNELS 3 Zrotation Xrotation Yrotation
                                        End Site
                                        {
                                            OFFSET  -2.273050   0.000000   0.000000
                                        }
                                    }
                                }
                            }
                            JOINT RightFinger4
                            {
                                OFFSET  -7.435090   0.000000  -3.252850
                                CHANNELS 3 Zrotation Xrotation Yrotation
                                JOINT RightFinger41
                                {
                                    OFFSET  -3.717550   0.000000   0.000000
                                    CHANNELS 3 Zrotation Xrotation Yrotation
                                    JOINT RightFinger42
                                    {
                                        OFFSET  -1.858760   0.000000   0.000000
                                        CHANNELS 3 Zrotation Xrotation Yrotation
                                        End Site
                                        {
                                            OFFSET  -1.818440   0.000000   0.000000
                                        }
                                    }
                                }
                            }
                        }
                    }
                }
            }
        }
    }
    JOINT LeftHip
    {
        OFFSET   9.783030   0.000000   0.000000
        CHANNELS 3 Zrotation Xrotation Yrotation
        JOINT LeftKnee
        {
            OFFSET   0.000063 -41.789100   0.000608
            CHANNELS 3 Zrotation Xrotation Yrotation
            JOINT LeftAnkle
            {
                OFFSET   0.000048 -41.133200  -0.000184
                CHANNELS 3 Zrotation Xrotation Yrotation
                JOINT LeftToe
                {
                    OFFSET   0.000000  -6.358960  14.674500
                    CHANNELS 3 Zrotation Xrotation Yrotation
                    End Site
                    {
                        OFFSET   0.000000   0.000000   3.913200
                    }
                }
            }
        }
    }
    JOINT RightHip
    {
        OFFSET  -9.783030   0.000000   0.000000
        CHANNELS 3 Zrotation Xrotation Yrotation
        JOINT RightKnee
        {
            OFFSET   0.000071 -41.789100   0.001239
            CHANNELS 3 Zrotation Xrotation Yrotation
            JOINT RightAnkle
            {
                OFFSET   0.000037 -41.133200  -0.000166
                CHANNELS 3 Zrotation Xrotation Yrotation
                JOINT RightToe
                {
                    OFFSET   0.000000  -6.358960  14.674500
                    CHANNELS 3 Zrotation Xrotation Yrotation
                    End Site
                    {
                        OFFSET   0.000000   0.000000   3.913200
                    }
                }
            }
        }
    }
}
MOTION
Frames: 4
Frame Time:   0.016667
 -0.317226  89.554200   2.851000  -2.868660  -8.017160  -2.887960   0.601532   5.150280   0.094931   1.201790  10.301300   0.136139   0.830717  -0.480436   0.002322   1.365090  -0.972650   3.962050  -5.595900  -1.329620   3.336170 -73.373200  17.585100  -2.371620  -1.474350  -3.692990 -18.750800  17.010700  -6.721990   6.411860  36.749500  28.860900 -53.286800 -33.991600  -0.005295  -0.003533 -11.999600   0.002404  -0.036605 -32.349500   7.259550 -11.294000 -27.056600   0.017064  -0.002333 -18.936800   0.012001   0.001390 -28.735100  -0.151136   0.279878 -39.910700  -0.004332   0.007774 -26.580500   0.017743   0.013550 -28.722000  -0.151094   0.279894 -39.746000   0.001455   0.001441 -26.470800  -0.001941   0.004313 -34.415600  -0.177597   0.263290 -51.624100  -0.004529   0.006029 -34.381600   0.004482   0.004981  10.606800   1.602620   7.152250  67.580100  18.289600  -3.004080  -4.549860  -2.523610  18.949500  -8.812170  -4.032410   0.939650 -39.505600  35.155500  66.924900  32.434700  -0.001438  -0.002553  11.217300   0.002877   0.007030  31.665600  10.552600  16.537500  27.166400  -0.000478   0.002641  19.016500   0.012644   0.004284  28.346600   4.208210   7.745780  37.862400  -0.002367  -0.005463  25.216400  -0.000982  -0.002970  28.172000   3.236300   6.017390  34.579100  -0.001448   0.004419  23.029600  -0.003223   0.003092  35.774800   0.050979   0.070038  53.662300   0.001198  -0.006673  35.739100   0.002099   0.005159   2.077100  10.694500   2.573100   1.069070   0.164619   4.082110  -1.380550  -3.844800  -0.806045  -0.000000   0.000000   0.000000   3.555710   9.682970  -0.140749  -0.429267   1.930010  -2.839540  -1.296230  -4.433940   0.087965   0.000000   0.000000   0.000000
 -0.310413  89.554300   2.878910  -2.872870  -8.023990  -2.893710   0.602616   5.150550   0.098931   1.203600  10.301800   0.144090   0.822528  -0.480041   0.002328   1.351670  -0.972259   3.962000  -5.601240  -1.334150   3.331130 -73.384200  17.589900  -2.371470  -1.475170  -3.699000 -18.734400  17.011000  -6.720880   6.411850  36.750300  28.866400 -53.301900 -33.991600  -0.005309  -0.003548 -11.999600   0.002409  -0.041450 -32.353600   7.264340 -11.294100 -27.060000   0.025963  -0.013078 -18.940400   0.020047  -0.004781 -28.735200  -0.151165   0.279983 -39.918100  -0.004332  -0.006215 -26.585400   0.036136   0.009475 -28.722000  -0.151125   0.280000 -39.751100   0.001457  -0.007929 -26.474200  -0.001941   0.000196 -34.415700  -0.177633   0.263388 -51.624200  -0.004527   0.001033 -34.381700   0.015025   0.005220  10.641600   1.548490   7.178050  67.618500  18.249800  -3.066090  -4.593290  -2.628220  18.967900  -8.807950  -4.030690   0.942760 -39.552100  35.207400  66.998200  32.400500  -0.001447  -0.002558  11.200200   0.002884   0.007048  31.673300  10.576500  16.568000  27.174800  -0.000477   0.002641  19.022400   0.012646   0.004280  28.347100   4.223380   7.773020  37.880400  -0.002367  -0.005462  25.228400  -0.000980  -0.002974  28.174100   3.250300   6.042420  34.600200  -0.001450   0.004431  23.043700  -0.003226   0.003099  35.783300   0.050976   0.070037  53.675000   0.001198  -0.006674  35.747500   0.002102   0.005164   2.075040  10.764400   2.574760   1.066660   0.071260   4.082410  -1.375780  -3.827500  -0.797145   0.000000   0.000000   0.000000   3.547660   9.709150  -0.131082  -0.421967   1.930900  -2.824150  -1.297720  -4.451520   0.065786  -0.000000   0.000000   0.000000
 -0.299678  89.554400   2.925930  -2.881880  -8.037550  -2.906940   0.605101   5.152500   0.104692   1.208080  10.305900   0.155436   0.809463  -0.479646   0.002345   1.330160  -0.971869   3.961950  -5.610840  -1.341660   3.321840 -73.400300  17.594700  -2.371310  -1.475500  -3.705170 -18.710300  17.011000  -6.717960   6.411810  36.750000  28.873000 -53.326700 -33.991600  -0.005323  -0.003563 -11.999500   0.002414  -0.046295 -32.362400   7.270830 -11.294300 -27.067400   0.034863  -0.028806 -18.947100   0.028093  -0.014289 -28.735200  -0.151221   0.280130 -39.932700  -0.004332  -0.026556 -26.595200   0.054529   0.001886 -28.722000  -0.151183   0.280148 -39.761400   0.001464  -0.022288 -26.481100  -0.001939  -0.006713 -34.416300  -0.177702   0.263526 -51.625200  -0.004525  -0.007632 -34.382400   0.030553   0.005460  10.706600   1.456990   7.229490  67.675200  18.195000  -3.189360  -4.674730  -2.785460  19.063700  -8.785990  -4.018630   0.964525 -39.640300  35.309100  67.148900  32.336600  -0.001463  -0.002573  11.168300   0.002893   0.007079  31.665900  10.623300  16.640000  27.183200  -0.000475   0.002642  19.028200   0.012648   0.004275  28.343100   4.254550   7.830820  37.898400  -0.002369  -0.005454  25.240300  -0.000977  -0.002986  28.171800   3.284590   6.106160  34.621300  -0.001456   0.004456  23.057800  -0.003232   0.003116  35.791700   0.050972   0.070036  53.687700   0.001198  -0.006675  35.756000   0.002108   0.005168   2.074650  10.867400   2.579900   1.059820  -0.022098   4.084580  -1.368570  -3.810200  -0.785691  -0.000000   0.000000  -0.000000   3.534960   9.755490  -0.116219  -0.408057   1.931810  -2.800150  -1.299850  -4.479470   0.035400   0.000000   0.000000   0.000000
 -0.292408  89.554600   2.964920  -2.892900  -8.052110  -2.924270   0.607794   5.156440   0.107318   1.213260  10.313800   0.160430   0.800718  -0.479765   0.002371   1.315970  -0.972104   3.973490  -5.619360  -1.346010   3.313230 -73.408500  17.584500  -2.371230  -1.478020  -3.696170 -18.697900  17.008400  -6.714220   6.408710  36.745200  28.871000 -53.344900 -33.995400  -0.005322  -0.003555 -11.999300   0.002401  -0.037334 -32.377500   7.272950 -11.292400 -27.079700   0.033172  -0.037991 -18.955900   0.027668  -0.020588 -28.735200  -0.151293   0.280195 -39.954400  -0.004332  -0.037981 -26.609700   0.053497  -0.008093 -28.722000  -0.151253   0.280212 -39.777400   0.001476  -0.032875 -26.491700  -0.001936  -0.013768 -34.423800  -0.177787   0.263584 -51.636400  -0.004526  -0.017314 -34.389900   0.039956   0.005399  10.776800   1.381430   7.292020  67.699400  18.183100  -3.329080  -4.754520  -2.880160  19.246500  -8.737100  -3.885240   1.016760 -39.737400  35.445300  67.373300  32.279600  -0.001475  -0.002597  11.139800   0.002896   0.007099  31.619900  10.691800  16.752700  27.171300  -0.000472   0.002642  19.019900   0.012644   0.004271  28.329500   4.292510   7.904050  37.790500  -0.002373  -0.005438  25.168400  -0.000971  -0.003008  28.156400   3.336490   6.205770  34.544500  -0.001466   0.004486  23.006700  -0.003241   0.003141  35.749200   0.061437   0.084250  53.624000   0.001201  -0.006670  35.713500   0.002112   0.005162   2.080860  10.916700   2.589040   1.052280  -0.012334   4.090170  -1.364590  -3.839810  -0.783082   0.000000   0.000000   0.000000   3.525770   9.797850  -0.105104  -0.392532   1.927590  -2.787360  -1.301820  -4.498470   0.024755  -0.000000   0.000000   0.000000
